<?xml version="1.0" encoding="UTF-8" standalone="no"?>
<!-- Created with Inkscape (http://www.inkscape.org/) -->

<svg
   width="210mm"
   height="297mm"
   viewBox="0 0 210 297"
   version="1.1"
   id="svg1"
   sodipodi:docname="sampling_diagram.svg"
   inkscape:version="1.3 (0e150ed, 2023-07-21)"
   xmlns:inkscape="http://www.inkscape.org/namespaces/inkscape"
   xmlns:sodipodi="http://sodipodi.sourceforge.net/DTD/sodipodi-0.dtd"
   xmlns="http://www.w3.org/2000/svg"
   xmlns:svg="http://www.w3.org/2000/svg">
  <sodipodi:namedview
     id="namedview1"
     pagecolor="#ffffff"
     bordercolor="#000000"
     borderopacity="0.25"
     inkscape:showpageshadow="2"
     inkscape:pageopacity="0.0"
     inkscape:pagecheckerboard="0"
     inkscape:deskcolor="#d1d1d1"
     inkscape:document-units="mm"
     inkscape:zoom="0.81390873"
     inkscape:cx="431.86661"
     inkscape:cy="356.91963"
     inkscape:window-width="1920"
     inkscape:window-height="1080"
     inkscape:window-x="0"
     inkscape:window-y="0"
     inkscape:window-maximized="0"
     inkscape:current-layer="layer5" />
  <defs
     id="defs1">
    <inkscape:path-effect
       effect="fillet_chamfer"
       id="path-effect19644"
       is_visible="true"
       lpeversion="1"
       nodesatellites_param="F,0,0,1,0,0,0,1 @ F,0,0,1,0,0,0,1 @ F,0,0,1,0,0,0,1 @ F,0,0,1,0,24.78459,0,1"
       radius="0"
       unit="px"
       method="auto"
       mode="F"
       chamfer_steps="1"
       flexible="false"
       use_knot_distance="true"
       apply_no_radius="true"
       apply_with_radius="true"
       only_selected="false"
       hide_knots="false" />
    <linearGradient
       id="swatch75"
       inkscape:swatch="solid">
      <stop
         style="stop-color:#73af04;stop-opacity:1;"
         offset="0"
         id="stop75" />
    </linearGradient>
    <inkscape:path-effect
       effect="fillet_chamfer"
       id="path-effect2"
       is_visible="true"
       lpeversion="1"
       nodesatellites_param="F,0,0,1,0,0,0,1 @ F,0,0,1,0,0,0,1 @ F,0,0,1,0,0,0,1 @ F,0,0,1,0,0,0,1"
       radius="0"
       unit="px"
       method="auto"
       mode="F"
       chamfer_steps="1"
       flexible="false"
       use_knot_distance="true"
       apply_no_radius="true"
       apply_with_radius="true"
       only_selected="false"
       hide_knots="false" />
    <meshgradient
       inkscape:collect="always"
       id="meshgradient327"
       gradientUnits="userSpaceOnUse"
       x="75.156914"
       y="48.095047"
       gradientTransform="matrix(1.0225128,0,0,1.1459109,-0.40471677,6.7721056)">
      <meshrow
         id="meshrow19607">
        <meshpatch
           id="meshpatch19607">
          <stop
             path="c 2.56691,0.132304  1.50463,-0.0953021  4.40602,-0.10497"
             style="stop-color:#ffffff;stop-opacity:0"
             id="stop19607" />
          <stop
             path="c -0.00119184,2.2359  0.381006,3.26105  1.1305,6.67523"
             style="stop-color:#19bc04;stop-opacity:1"
             id="stop19608" />
          <stop
             path="c -2.29732,-0.0020503  -3.22509,0.0935044  -5.37888,0.0301075"
             style="stop-color:#52b80f;stop-opacity:0.43194053"
             id="stop19609" />
          <stop
             path="c 0.139025,-2.04386  -0.157058,-4.36267  -0.15764,-6.60037"
             style="stop-color:#ffffff;stop-opacity:0"
             id="stop19610" />
        </meshpatch>
        <meshpatch
           id="meshpatch19610">
          <stop
             path="c 8.81651,-0.00817651  17.7694,-0.18759  26.8,-0.214672"
             id="stop19611" />
          <stop
             path="c 0.000771462,2.23737  0.110049,5.14559  0.148413,7.3642"
             style="stop-color:#41b604;stop-opacity:1"
             id="stop19612" />
          <stop
             path="c -8.99776,0.0111216  -17.0284,-0.477152  -25.8179,-0.474298"
             style="stop-color:#7cc63b;stop-opacity:1"
             id="stop19613" />
        </meshpatch>
        <meshpatch
           id="meshpatch19613">
          <stop
             path="c 6.71369,-0.0201336  13.4397,-0.0404682  20.1082,-0.0535347"
             id="stop19614" />
          <stop
             path="c 8.12665e-05,2.23989  -0.0637833,4.8751  -0.0631151,7.10746"
             style="stop-color:#5eb104;stop-opacity:1"
             id="stop19615" />
          <stop
             path="c -6.66572,0.00515541  -13.1854,0.302065  -19.8967,0.310275"
             style="stop-color:#a9d375;stop-opacity:1"
             id="stop19616" />
        </meshpatch>
        <meshpatch
           id="meshpatch19616">
          <stop
             path="c 3.65491,-0.00716164  5.06076,-0.0410016  8.66961,-0.0425668"
             id="stop19617" />
          <stop
             path="c -0.23722,2.30529  1.56363,2.33581  1.32672,4.63971"
             style="stop-color:#6faf04;stop-opacity:1"
             id="stop19618" />
          <stop
             path="c -3.65396,1.17837  -3.33125,2.31831  -10.0594,2.51032"
             style="stop-color:#bdda8c;stop-opacity:0.5334059"
             id="stop19619" />
        </meshpatch>
        <meshpatch
           id="meshpatch19619">
          <stop
             path="c 0.795748,-0.000344421  3.27219,-0.000524665  4.06525,-0.000524483"
             id="stop19620" />
          <stop
             path="c -4.08532e-05,2.23747  0.226361,1.73313  -0.485203,3.68194"
             style="stop-color:#ffffff;stop-opacity:0"
             id="stop19621" />
          <stop
             path="c -0.648676,0.376149  -0.606637,0.265496  -2.25333,0.958294"
             style="stop-color:#ffffff;stop-opacity:0"
             id="stop19622" />
        </meshpatch>
      </meshrow>
      <meshrow
         id="meshrow19622">
        <meshpatch
           id="meshpatch19622">
          <stop
             path="c 0.809511,2.0109  3.22578,2.29968  7.04092,3.8167"
             id="stop19623" />
          <stop
             path="c -1.77229,0.000493459  -10.8441,1.01275  -12.6173,1.01276"
             style="stop-color:#7eb518;stop-opacity:0.00252207"
             id="stop19624" />
          <stop
             path="c 3.96509e-05,-1.69139  0.0923827,-3.25425  0.1975,-4.79935"
             style="stop-color:#ffffff;stop-opacity:0"
             id="stop19625" />
        </meshpatch>
        <meshpatch
           id="meshpatch19625">
          <stop
             path="c 0.0289977,1.67712  -0.0102471,2.66329  -0.00997492,4.3546"
             id="stop19626" />
          <stop
             path="c -9.02869,0.000185027  -9.94191,-1.01207  -18.767,-1.0122"
             style="stop-color:#b7d67f;stop-opacity:0"
             id="stop19627" />
        </meshpatch>
        <meshpatch
           id="meshpatch19627">
          <stop
             path="c 0.000505887,1.68753  0.0656101,2.9717  0.065547,4.66494"
             id="stop19628" />
          <stop
             path="c -6.66637,-3.43663e-06  -13.26,-1.12348e-05  -19.9722,-6.53e-05"
             style="stop-color:#e2eecb;stop-opacity:0"
             id="stop19629" />
        </meshpatch>
        <meshpatch
           id="meshpatch19629">
          <stop
             path="c 0.237032,1.624  -1.0461,3.12584  -0.809111,4.75085"
             id="stop19630" />
          <stop
             path="c -1.44151,1.01018  -5.5311,2.42439  -9.18479,2.42441"
             style="stop-color:#f9fbf5;stop-opacity:0"
             id="stop19631" />
        </meshpatch>
        <meshpatch
           id="meshpatch19631">
          <stop
             path="c 3.3311e-05,1.69139  1.06742,1.53563  1.06746,3.22704"
             id="stop19632" />
          <stop
             path="c -0.178469,0.375189  -1.1993,2.1069  -4.1299,2.4821"
             style="stop-color:#ffffff;stop-opacity:0"
             id="stop19633" />
        </meshpatch>
      </meshrow>
    </meshgradient>
  </defs>
  <g
     inkscape:groupmode="layer"
     id="layer3"
     inkscape:label="Dish">
    <path
       d="m 107.61314,121.52138 a 19.937572,8.1626778 0 0 0 -2.60242,0.0698 19.937572,8.1626778 0 0 0 -2.55798,0.20825 19.937572,8.1626778 0 0 0 -2.469617,0.34313 19.937572,8.1626778 0 0 0 -2.338879,0.47233 19.937572,8.1626778 0 0 0 -2.16834,0.59324 19.937572,8.1626778 0 0 0 -1.96112,0.70384 19.937572,8.1626778 0 0 0 -1.71928,0.80305 19.937572,8.1626778 0 0 0 -1.449,0.8878 19.937572,8.1626778 0 0 0 -1.15342,0.95756 19.937572,8.1626778 0 0 0 -0.83819,1.01079 19.937572,8.1626778 0 0 0 -0.50901,1.04749 19.937572,8.1626778 0 0 0 -0.17054,1.06505 19.937572,8.1626778 0 0 0 0.17054,1.06557 19.937572,8.1626778 0 0 0 0.50901,1.04748 19.937572,8.1626778 0 0 0 0.83819,1.01079 19.937572,8.1626778 0 0 0 1.15342,0.95756 19.937572,8.1626778 0 0 0 1.449,0.8878 19.937572,8.1626778 0 0 0 1.71928,0.80306 19.937572,8.1626778 0 0 0 1.96112,0.70383 19.937572,8.1626778 0 0 0 2.16834,0.59324 19.937572,8.1626778 0 0 0 2.338879,0.47233 19.937572,8.1626778 0 0 0 2.469617,0.34313 19.937572,8.1626778 0 0 0 2.55798,0.20825 19.937572,8.1626778 0 0 0 2.60242,0.0698 19.937572,8.1626778 0 0 0 2.60191,-0.0698 19.937572,8.1626778 0 0 0 2.55799,-0.20825 19.937572,8.1626778 0 0 0 2.46961,-0.34313 19.937572,8.1626778 0 0 0 2.33888,-0.47233 19.937572,8.1626778 0 0 0 2.16886,-0.59324 19.937572,8.1626778 0 0 0 1.9606,-0.70383 19.937572,8.1626778 0 0 0 1.71928,-0.80306 19.937572,8.1626778 0 0 0 1.449,-0.8878 19.937572,8.1626778 0 0 0 1.15342,-0.95756 19.937572,8.1626778 0 0 0 0.83871,-1.01079 19.937572,8.1626778 0 0 0 0.5085,-1.04748 19.937572,8.1626778 0 0 0 0.17053,-1.06557 19.937572,8.1626778 0 0 0 -0.0191,-0.35605 19.937572,8.1626778 0 0 0 -0.0568,-0.35502 19.937572,8.1626778 0 0 0 -0.0946,-0.35398 19.937572,8.1626778 0 0 0 -0.1323,-0.35192 19.937572,8.1626778 0 0 0 -0.16949,-0.34933 19.937572,8.1626778 0 0 0 -0.20671,-0.34624 19.937572,8.1626778 0 0 0 -0.24391,-0.34158 19.937572,8.1626778 0 0 0 -0.27957,-0.33744 19.937572,8.1626778 0 0 0 -0.31523,-0.33177 19.937572,8.1626778 0 0 0 -0.35036,-0.32607 19.937572,8.1626778 0 0 0 -0.38448,-0.31936 19.937572,8.1626778 0 0 0 -0.41858,-0.31213 19.937572,8.1626778 0 0 0 -0.45113,-0.30489 19.937572,8.1626778 0 0 0 -0.48318,-0.29611 19.937572,8.1626778 0 0 0 -0.51469,-0.2868 19.937572,8.1626778 0 0 0 -0.54416,-0.27802 19.937572,8.1626778 0 0 0 -0.5736,-0.26768 19.937572,8.1626778 0 0 0 -0.60152,-0.25735 19.937572,8.1626778 0 0 0 -0.62838,-0.24598 19.937572,8.1626778 0 0 0 -0.65423,-0.23513 19.937572,8.1626778 0 0 0 -0.67799,-0.22273 19.937572,8.1626778 0 0 0 -0.70177,-0.21084 19.937572,8.1626778 0 0 0 -0.72347,-0.19792 19.937572,8.1626778 0 0 0 -0.74362,-0.18448 19.937572,8.1626778 0 0 0 -0.76223,-0.17157 19.937572,8.1626778 0 0 0 -0.78031,-0.1571 19.937572,8.1626778 0 0 0 -0.79634,-0.14366 19.937572,8.1626778 0 0 0 -0.8108,-0.12919 19.937572,8.1626778 0 0 0 -0.82372,-0.1142 19.937572,8.1626778 0 0 0 -0.83509,-0.0997 19.937572,8.1626778 0 0 0 -0.84491,-0.0847 19.937572,8.1626778 0 0 0 -0.85318,-0.0692 19.937572,8.1626778 0 0 0 -0.8599,-0.0543 19.937572,8.1626778 0 0 0 -0.86454,-0.0388 19.937572,8.1626778 0 0 0 -0.86817,-0.0232 19.937572,8.1626778 0 0 0 -0.8692,-0.008 z"
       style="display:inline;fill:#dfdfdf;fill-opacity:0.364439;stroke:none;stroke-width:0.1;stroke-linecap:square;stroke-linejoin:round;stroke-dasharray:none;stroke-opacity:1;paint-order:fill markers stroke"
       id="path19645-6" />
    <ellipse
       style="display:inline;fill:#edadad;fill-opacity:1;stroke:#f1c5b1;stroke-width:0.2;stroke-linecap:square;stroke-linejoin:round;stroke-dasharray:none;stroke-opacity:1;paint-order:fill markers stroke"
       id="path19644-3-9"
       cx="107.61295"
       cy="133.71832"
       rx="19.937572"
       ry="8.1157656" />
    <path
       id="path19644-3"
       style="display:inline;fill:#d7d7d7;fill-opacity:0.933165;stroke:#bebebe;stroke-width:0.2;stroke-linecap:square;stroke-linejoin:round;stroke-dasharray:none;stroke-opacity:1;paint-order:fill markers stroke"
       inkscape:label="path19644-3"
       d="m 87.673794,129.88215 v 3.63854 h 0.0336 a 19.937572,8.1157656 0 0 0 -0.032,0.19792 19.937572,8.1157656 0 0 0 19.937796,8.11527 19.937572,8.1157656 0 0 0 19.93729,-8.11527 19.937572,8.1157656 0 0 0 -0.0109,-0.19792 h 0.0129 v -3.63854 h -0.008 a 19.937572,8.1626778 0 0 1 -0.16484,0.86713 19.937572,8.1626778 0 0 1 -0.5085,1.04748 19.937572,8.1626778 0 0 1 -0.83871,1.01079 19.937572,8.1626778 0 0 1 -1.15342,0.95757 19.937572,8.1626778 0 0 1 -1.449,0.8878 19.937572,8.1626778 0 0 1 -1.71928,0.80305 19.937572,8.1626778 0 0 1 -1.9606,0.70383 19.937572,8.1626778 0 0 1 -2.16886,0.59325 19.937572,8.1626778 0 0 1 -2.33888,0.47232 19.937572,8.1626778 0 0 1 -2.46961,0.34313 19.937572,8.1626778 0 0 1 -2.55799,0.20826 19.937572,8.1626778 0 0 1 -2.60191,0.0698 19.937572,8.1626778 0 0 1 -2.60242,-0.0698 19.937572,8.1626778 0 0 1 -2.55798,-0.20826 19.937572,8.1626778 0 0 1 -2.469617,-0.34313 19.937572,8.1626778 0 0 1 -2.338879,-0.47232 19.937572,8.1626778 0 0 1 -2.16834,-0.59325 19.937572,8.1626778 0 0 1 -1.96112,-0.70383 19.937572,8.1626778 0 0 1 -1.71928,-0.80305 19.937572,8.1626778 0 0 1 -1.449,-0.8878 19.937572,8.1626778 0 0 1 -1.15342,-0.95757 19.937572,8.1626778 0 0 1 -0.83819,-1.01079 19.937572,8.1626778 0 0 1 -0.50901,-1.04748 19.937572,8.1626778 0 0 1 -0.13901,-0.86713 z" />
    <path
       d="m 107.61314,121.52138 a 19.937572,8.1626778 0 0 0 -2.60242,0.0698 19.937572,8.1626778 0 0 0 -2.55798,0.20825 19.937572,8.1626778 0 0 0 -2.469617,0.34313 19.937572,8.1626778 0 0 0 -2.338879,0.47233 19.937572,8.1626778 0 0 0 -2.16834,0.59324 19.937572,8.1626778 0 0 0 -1.96112,0.70384 19.937572,8.1626778 0 0 0 -1.71928,0.80305 19.937572,8.1626778 0 0 0 -1.449,0.8878 19.937572,8.1626778 0 0 0 -1.15342,0.95756 19.937572,8.1626778 0 0 0 -0.83819,1.01079 19.937572,8.1626778 0 0 0 -0.50901,1.04749 19.937572,8.1626778 0 0 0 -0.17054,1.06505 19.937572,8.1626778 0 0 0 0.17054,1.06557 19.937572,8.1626778 0 0 0 0.50901,1.04748 19.937572,8.1626778 0 0 0 0.83819,1.01079 19.937572,8.1626778 0 0 0 1.15342,0.95756 19.937572,8.1626778 0 0 0 1.449,0.8878 19.937572,8.1626778 0 0 0 1.71928,0.80306 19.937572,8.1626778 0 0 0 1.96112,0.70383 19.937572,8.1626778 0 0 0 2.16834,0.59324 19.937572,8.1626778 0 0 0 2.338879,0.47233 19.937572,8.1626778 0 0 0 2.469617,0.34313 19.937572,8.1626778 0 0 0 2.55798,0.20825 19.937572,8.1626778 0 0 0 2.60242,0.0698 19.937572,8.1626778 0 0 0 2.60191,-0.0698 19.937572,8.1626778 0 0 0 2.55799,-0.20825 19.937572,8.1626778 0 0 0 2.46961,-0.34313 19.937572,8.1626778 0 0 0 2.33888,-0.47233 19.937572,8.1626778 0 0 0 2.16886,-0.59324 19.937572,8.1626778 0 0 0 1.9606,-0.70383 19.937572,8.1626778 0 0 0 1.71928,-0.80306 19.937572,8.1626778 0 0 0 1.449,-0.8878 19.937572,8.1626778 0 0 0 1.15342,-0.95756 19.937572,8.1626778 0 0 0 0.83871,-1.01079 19.937572,8.1626778 0 0 0 0.5085,-1.04748 19.937572,8.1626778 0 0 0 0.17053,-1.06557 19.937572,8.1626778 0 0 0 -0.0191,-0.35605 19.937572,8.1626778 0 0 0 -0.0568,-0.35502 19.937572,8.1626778 0 0 0 -0.0946,-0.35398 19.937572,8.1626778 0 0 0 -0.1323,-0.35192 19.937572,8.1626778 0 0 0 -0.16949,-0.34933 19.937572,8.1626778 0 0 0 -0.20671,-0.34624 19.937572,8.1626778 0 0 0 -0.24391,-0.34158 19.937572,8.1626778 0 0 0 -0.27957,-0.33744 19.937572,8.1626778 0 0 0 -0.31523,-0.33177 19.937572,8.1626778 0 0 0 -0.35036,-0.32607 19.937572,8.1626778 0 0 0 -0.38448,-0.31936 19.937572,8.1626778 0 0 0 -0.41858,-0.31213 19.937572,8.1626778 0 0 0 -0.45113,-0.30489 19.937572,8.1626778 0 0 0 -0.48318,-0.29611 19.937572,8.1626778 0 0 0 -0.51469,-0.2868 19.937572,8.1626778 0 0 0 -0.54416,-0.27802 19.937572,8.1626778 0 0 0 -0.5736,-0.26768 19.937572,8.1626778 0 0 0 -0.60152,-0.25735 19.937572,8.1626778 0 0 0 -0.62838,-0.24598 19.937572,8.1626778 0 0 0 -0.65423,-0.23513 19.937572,8.1626778 0 0 0 -0.67799,-0.22273 19.937572,8.1626778 0 0 0 -0.70177,-0.21084 19.937572,8.1626778 0 0 0 -0.72347,-0.19792 19.937572,8.1626778 0 0 0 -0.74362,-0.18448 19.937572,8.1626778 0 0 0 -0.76223,-0.17157 19.937572,8.1626778 0 0 0 -0.78031,-0.1571 19.937572,8.1626778 0 0 0 -0.79634,-0.14366 19.937572,8.1626778 0 0 0 -0.8108,-0.12919 19.937572,8.1626778 0 0 0 -0.82372,-0.1142 19.937572,8.1626778 0 0 0 -0.83509,-0.0997 19.937572,8.1626778 0 0 0 -0.84491,-0.0847 19.937572,8.1626778 0 0 0 -0.85318,-0.0692 19.937572,8.1626778 0 0 0 -0.8599,-0.0543 19.937572,8.1626778 0 0 0 -0.86454,-0.0388 19.937572,8.1626778 0 0 0 -0.86817,-0.0232 19.937572,8.1626778 0 0 0 -0.8692,-0.008 z"
       style="display:inline;fill:none;fill-opacity:0.364439;stroke:#d1d1d1;stroke-width:0.2;stroke-linecap:square;stroke-linejoin:round;stroke-dasharray:none;stroke-opacity:1;paint-order:fill markers stroke"
       id="path19645-6-1" />
  </g>
  <g
     inkscape:groupmode="layer"
     id="layer2"
     inkscape:label="Sample">
    <g
       id="g19644"
       transform="matrix(0.38958902,-0.33766756,0.33766756,0.38958902,-4.6737311,54.196877)">
      <g
         id="g19637">
        <path
           style="fill:#1eacee;fill-opacity:1;stroke:none;stroke-width:0.416345;stroke-linecap:square;stroke-linejoin:round;stroke-dasharray:none;stroke-opacity:1;paint-order:fill markers stroke"
           d="m 24.96633,90.263506 v 9.349633 c 0,0 10.291863,4.006991 29.739936,0 l -0.07098,-9.282848 z"
           id="path19635" />
        <ellipse
           style="fill:#2ea7de;fill-opacity:1;stroke:none;stroke-width:0.415995;stroke-linecap:square;stroke-linejoin:round;stroke-dasharray:none;stroke-opacity:1;paint-order:fill markers stroke"
           id="path19634"
           cx="39.817322"
           cy="90.31073"
           rx="14.880346"
           ry="2.2706263" />
        <ellipse
           style="fill:#1eacee;fill-opacity:1;stroke:none;stroke-width:0.415995;stroke-linecap:square;stroke-linejoin:round;stroke-dasharray:none;stroke-opacity:1;paint-order:fill markers stroke"
           id="path19634-4"
           cx="39.891491"
           cy="99.632607"
           rx="14.880346"
           ry="2.2706263" />
      </g>
      <g
         id="g19638"
         transform="translate(0.10282373)">
        <path
           style="fill:#5898b4;fill-opacity:0.0970996;stroke:none;stroke-width:0.445426;stroke-linecap:square;stroke-linejoin:round;stroke-dasharray:none;stroke-opacity:1;paint-order:fill markers stroke"
           d="m 26.56659,99.718258 v 57.418762 c 0,0 2.245064,6.49587 4.209497,9.04781 1.964431,2.55195 6.158653,9.39579 9.112935,9.39579 2.954282,0 7.725045,-7.07584 8.94112,-9.27979 1.216075,-2.20395 3.928861,-5.91587 4.115951,-8.46782 0.187089,-2.55194 0,-58.114752 0,-58.114752 z"
           id="path19636" />
        <path
           style="fill:#dfdfdf;fill-opacity:0.887768;stroke:none;stroke-width:0.425372;stroke-linecap:square;stroke-linejoin:round;stroke-dasharray:none;stroke-opacity:1;paint-order:fill markers stroke"
           d="m 26.477569,109.05448 c 0,0 3.845799,1.28523 14.061728,0.59253 -0.134407,0.009 0.237068,1.67715 0.237068,1.67715 0,0 -7.910171,0.6836 -14.206453,-0.65633 -0.124112,0.082 -0.09235,-1.61335 -0.09235,-1.61335 z"
           id="path19637" />
        <path
           style="fill:#dfdfdf;fill-opacity:0.887768;stroke:none;stroke-width:0.425372;stroke-linecap:square;stroke-linejoin:round;stroke-dasharray:none;stroke-opacity:1;paint-order:fill markers stroke"
           d="m 26.598165,117.81103 c 0,0 3.845799,1.28523 14.061728,0.59253 -0.134407,0.009 0.237068,1.67715 0.237068,1.67715 0,0 -7.910171,0.6836 -14.206453,-0.65633 -0.124112,0.082 -0.09235,-1.61335 -0.09235,-1.61335 z"
           id="path19637-0" />
        <path
           style="fill:#dfdfdf;fill-opacity:0.887768;stroke:none;stroke-width:0.425372;stroke-linecap:square;stroke-linejoin:round;stroke-dasharray:none;stroke-opacity:1;paint-order:fill markers stroke"
           d="m 26.494079,126.56758 c 0,0 3.845799,1.28523 14.061728,0.59253 -0.134407,0.009 0.237068,1.67715 0.237068,1.67715 0,0 -7.910171,0.6836 -14.206453,-0.65633 -0.124112,0.082 -0.09235,-1.61335 -0.09235,-1.61335 z"
           id="path19637-1" />
        <path
           style="fill:#dfdfdf;fill-opacity:0.887768;stroke:none;stroke-width:0.425372;stroke-linecap:square;stroke-linejoin:round;stroke-dasharray:none;stroke-opacity:1;paint-order:fill markers stroke"
           d="m 26.646314,135.32413 c 0,0 3.845799,1.28523 14.061728,0.59253 -0.134407,0.009 0.237068,1.67715 0.237068,1.67715 0,0 -7.910171,0.6836 -14.206453,-0.65633 -0.124112,0.082 -0.09235,-1.61335 -0.09235,-1.61335 z"
           id="path19637-09" />
        <path
           style="fill:#dfdfdf;fill-opacity:0.887768;stroke:none;stroke-width:0.425372;stroke-linecap:square;stroke-linejoin:round;stroke-dasharray:none;stroke-opacity:1;paint-order:fill markers stroke"
           d="m 26.662364,144.08068 c 0,0 3.845799,1.28523 14.061728,0.59253 -0.134407,0.009 0.237068,1.67715 0.237068,1.67715 0,0 -7.910171,0.6836 -14.206453,-0.65633 -0.124112,0.082 -0.09235,-1.61335 -0.09235,-1.61335 z"
           id="path19637-9" />
        <path
           style="fill:#dfdfdf;fill-opacity:0.887768;stroke:none;stroke-width:0.425372;stroke-linecap:square;stroke-linejoin:round;stroke-dasharray:none;stroke-opacity:1;paint-order:fill markers stroke"
           d="m 26.771958,152.83723 c 0,0 3.845799,1.28523 14.061728,0.59253 -0.134407,0.009 0.237068,1.67715 0.237068,1.67715 0,0 -7.910171,0.6836 -14.206453,-0.65633 -0.124112,0.082 -0.09235,-1.61335 -0.09235,-1.61335 z"
           id="path19637-2" />
      </g>
    </g>
  </g>
  <g
     inkscape:label="Wild"
     inkscape:groupmode="layer"
     id="layer1">
    <rect
       style="fill:url(#meshgradient327);fill-opacity:1;stroke:none;stroke-width:0.465524;stroke-linecap:square;stroke-linejoin:round;stroke-dasharray:none;stroke-opacity:1;paint-order:fill markers stroke"
       id="rect12"
       width="66.094345"
       height="13.506377"
       x="76.402458"
       y="61.440781"
       ry="1.2595204"
       inkscape:label="rect12" />
    <path
       style="fill:#84cb05;fill-opacity:1;stroke:none;stroke-width:0.4;stroke-linecap:square;stroke-linejoin:round;stroke-dasharray:none;stroke-opacity:1;paint-order:fill markers stroke"
       d="m 89.478648,62.040122 -5.954533,0.02663 c 0,0 -3.009365,-1.905784 -2.421594,-5.203165 0.58777,-3.297382 3.136128,-5.236841 5.642232,-4.795426 2.506105,0.441414 7.209165,3.832694 10.263135,3.225332 3.053962,-0.607363 6.294202,-4.254606 10.378172,-3.255938 4.08396,0.998667 6.16743,2.888019 5.74245,4.468226 -0.42498,1.580208 -2.08031,5.387893 -4.46118,5.345638 -2.38088,-0.04225 -19.188682,0.188698 -19.188682,0.188698 z"
       id="path12" />
    <path
       style="fill:#73af04;fill-opacity:1;stroke:none;stroke-width:0.4;stroke-linecap:square;stroke-linejoin:round;stroke-dasharray:none;stroke-opacity:1;paint-order:fill markers stroke"
       d="m 112.91582,61.73972 24.08267,0.103771 c 0,0 3.77525,-3.248635 1.07457,-6.231056 -2.70068,-2.982422 -4.12247,-2.216418 -7.84104,-0.662952 -3.27828,1.369527 -4.51768,1.020987 -6.98467,0.14722 -4.0673,-1.440569 -0.77533,-4.486769 -5.27864,-4.340483 -4.50332,0.146286 -4.5983,2.608472 -5.69257,3.853551 -0.85261,0.970115 -4.77906,1.826336 -4.02036,3.169656 0.75871,1.34332 1.48613,3.876853 4.66004,3.960293 z"
       id="path13"
       sodipodi:nodetypes="ccssssssc" />
    <path
       style="fill:#e3f8fb;fill-opacity:1;stroke:none;stroke-width:0.329026;stroke-linecap:square;stroke-linejoin:round;stroke-dasharray:none;paint-order:fill markers stroke"
       d="m 108.35191,62.515218 c 0,0 -15.213462,-0.133877 -21.228074,2.008151 -6.014618,2.142027 -3.891811,1.740396 -3.095759,2.409781 0.796053,0.669383 14.152041,2.142027 20.697363,0.80326 6.54533,-1.338767 12.91375,0.937137 17.77851,0.535506 4.86476,-0.40163 15.21344,-2.275904 14.06359,-3.346917 -1.14985,-1.071014 -13.26754,-2.543658 -16.1864,-2.543658 -2.91886,0 -12.02923,0.133877 -12.02923,0.133877 z"
       id="path1"
       inkscape:label="path1" />
    <g
       id="g10"
       inkscape:label="Reeds"
       transform="translate(2.7415662,13.733167)">
      <path
         style="fill:none;fill-opacity:1;stroke:#277101;stroke-width:0.4;stroke-linecap:square;stroke-linejoin:round;stroke-dasharray:none;stroke-opacity:1;paint-order:fill markers stroke"
         d="m 124.46624,50.151344 c 0,0 0.36221,-5.106032 -1.88675,-9.934678"
         id="path4" />
      <rect
         style="fill:#9b5815;fill-opacity:1;stroke:none;stroke-width:0.0870729;stroke-linecap:square;stroke-linejoin:round;stroke-dasharray:none;paint-order:fill markers stroke"
         id="rect2"
         width="0.73395967"
         height="2.7124598"
         x="99.530174"
         y="78.918839"
         ry="0.46696535"
         transform="rotate(-21.090134)" />
      <path
         style="fill:none;fill-opacity:1;stroke:#277101;stroke-width:0.404154;stroke-linecap:square;stroke-linejoin:round;stroke-dasharray:none;stroke-opacity:1;paint-order:fill markers stroke"
         d="m 124.86943,50.679382 c 0,0 1.33357,-5.328677 0.54956,-9.493165"
         id="path5" />
      <path
         style="fill:none;fill-opacity:1;stroke:#277101;stroke-width:0.4;stroke-linecap:square;stroke-linejoin:round;stroke-dasharray:none;stroke-opacity:1;paint-order:fill markers stroke"
         d="m 126.12115,50.60203 c 0,0 1.59025,-10.559521 1.23946,-12.935976"
         id="path6" />
      <path
         style="fill:none;fill-opacity:1;stroke:#277101;stroke-width:0.4;stroke-linecap:square;stroke-linejoin:round;stroke-dasharray:none;stroke-opacity:1;paint-order:fill markers stroke"
         d="m 124.68806,50.829582 c 0,0 0.28717,-5.285925 -0.18055,-7.939505"
         id="path7" />
      <path
         style="fill:none;fill-opacity:1;stroke:#277101;stroke-width:0.4;stroke-linecap:square;stroke-linejoin:round;stroke-dasharray:none;stroke-opacity:1;paint-order:fill markers stroke"
         d="m 125.45794,51.040135 c 0,0 1.014,-5.624361 1.014,-8.594394"
         id="path8" />
      <rect
         style="fill:#9b5815;fill-opacity:1;stroke:none;stroke-width:0.077372;stroke-linecap:square;stroke-linejoin:round;stroke-dasharray:none;paint-order:fill markers stroke"
         id="rect2-8-0"
         width="0.68111861"
         height="2.3078852"
         x="111.89704"
         y="64.52317"
         ry="0.3973155"
         transform="matrix(0.98009393,-0.19853433,0.21720709,0.97612555,0,0)" />
      <rect
         style="fill:#9b5815;fill-opacity:1;stroke:none;stroke-width:0.0662293;stroke-linecap:square;stroke-linejoin:round;stroke-dasharray:none;paint-order:fill markers stroke"
         id="rect2-8"
         width="0.54260141"
         height="2.1226995"
         x="108.47816"
         y="78.555817"
         ry="0.36543474"
         transform="matrix(0.9430285,-0.33271196,0.28361178,0.95893918,0,0)" />
      <rect
         style="fill:#9b5815;fill-opacity:1;stroke:none;stroke-width:0.0655076;stroke-linecap:square;stroke-linejoin:round;stroke-dasharray:none;paint-order:fill markers stroke"
         id="rect2-8-4"
         width="0.55604374"
         height="2.0264847"
         x="121.04533"
         y="50.595375"
         ry="0.34887084"
         transform="matrix(0.99289655,-0.11898088,0.13151886,0.99131367,0,0)" />
      <rect
         style="fill:#9b5815;fill-opacity:1;stroke:none;stroke-width:0.0655076;stroke-linecap:square;stroke-linejoin:round;stroke-dasharray:none;paint-order:fill markers stroke"
         id="rect2-8-5"
         width="0.55604374"
         height="2.0264847"
         x="123.15587"
         y="46.969494"
         ry="0.34887084"
         transform="matrix(0.99863261,-0.05227726,0.06489304,0.99789223,0,0)"
         inkscape:transform-center-x="-0.012520865"
         inkscape:transform-center-y="-0.10196369" />
      <path
         style="fill:#277101;fill-opacity:1;stroke:none;stroke-width:0.4;stroke-linecap:square;stroke-linejoin:round;stroke-dasharray:none;stroke-opacity:1;paint-order:fill markers stroke"
         d="m 124.23841,50.783463 c 0,0 -0.26458,-4.365625 -2.34817,-6.961849 -2.0836,-2.596224 0.13229,-0.810286 1.00872,0.843359 0.87643,1.653646 1.90169,4.01836 2.01745,5.969662"
         id="path9" />
      <path
         style="fill:#277101;fill-opacity:1;stroke:none;stroke-width:0.359865;stroke-linecap:square;stroke-linejoin:round;stroke-dasharray:none;stroke-opacity:1;paint-order:fill markers stroke"
         d="m 126.29023,50.98647 c 0,0 0.22636,-4.130011 2.00902,-6.586117 1.78267,-2.456105 -0.11318,-0.766555 -0.86303,0.797843 -0.74985,1.564398 -1.62703,3.801488 -1.72607,5.647478"
         id="path9-5" />
      <path
         style="fill:#277101;fill-opacity:1;stroke:none;stroke-width:0.275471;stroke-linecap:square;stroke-linejoin:round;stroke-dasharray:none;stroke-opacity:1;paint-order:fill markers stroke"
         d="m 124.35197,51.298385 c 0,0 -0.48038,-3.273846 -1.96224,-5.07055 -1.48187,-1.7967 0.0235,-0.621794 0.68747,0.557756 0.66398,1.17955 1.47186,2.884094 1.68503,4.347599"
         id="path9-4" />
      <path
         style="fill:#277101;fill-opacity:1;stroke:none;stroke-width:0.355558;stroke-linecap:square;stroke-linejoin:round;stroke-dasharray:none;stroke-opacity:1;paint-order:fill markers stroke"
         d="m 125.56475,51.002544 c 0,0 0.30591,-2.98343 2.71494,-4.757666 2.40905,-1.774237 -0.15295,-0.553742 -1.16628,0.576344 -1.01332,1.130087 -2.19872,2.746112 -2.33256,4.079614"
         id="path9-9" />
      <path
         style="fill:#e3f8fb;fill-opacity:0.778058;stroke:none;stroke-width:0.4;stroke-linecap:square;stroke-linejoin:round;stroke-dasharray:none;stroke-opacity:1;paint-order:fill markers stroke"
         d="m 123.74746,50.39701 c 0,0 1.40316,0.537879 3.07527,0.210473 1.67211,-0.327403 0.72497,1.286235 -1.08745,1.204384 -1.81243,-0.08185 -1.92936,-0.105236 -2.72448,-0.502801 -0.79513,-0.397563 -0.97052,-1.216076 0.73666,-0.912056 z"
         id="path10" />
    </g>
  </g>
  <g
     inkscape:groupmode="layer"
     id="layer4"
     inkscape:label="Bubbles">
    <ellipse
       style="fill:none;fill-opacity:1;stroke:#f1c5b1;stroke-width:0.235515;stroke-linecap:square;stroke-linejoin:round;stroke-dasharray:none;stroke-opacity:1;paint-order:fill markers stroke"
       id="path19645"
       cx="110.80772"
       cy="23.082687"
       rx="18.69784"
       ry="18.561386" />
    <ellipse
       style="fill:none;fill-opacity:1;stroke:#f1c5b1;stroke-width:0.235515;stroke-linecap:square;stroke-linejoin:round;stroke-dasharray:none;stroke-opacity:1;paint-order:fill markers stroke"
       id="path19645-4"
       cx="41.701977"
       cy="40.134571"
       rx="18.69784"
       ry="18.561386" />
    <ellipse
       style="fill:none;fill-opacity:1;stroke:#f1c5b1;stroke-width:0.235515;stroke-linecap:square;stroke-linejoin:round;stroke-dasharray:none;stroke-opacity:1;paint-order:fill markers stroke"
       id="path19645-1"
       cx="109.54098"
       cy="97.217072"
       rx="18.69784"
       ry="18.561386" />
  </g>
  <g
     inkscape:groupmode="layer"
     id="layer5"
     inkscape:label="Arrows">
    <path
       style="fill:#252525;fill-opacity:1;stroke:none;stroke-width:0.175218;stroke-linecap:square;stroke-linejoin:round;stroke-dasharray:none;stroke-opacity:1;paint-order:fill markers stroke"
       d="m 60.90227,78.977974 c 0,0 5.830335,-9.275482 25.264791,-13.113613 l 1.182969,0.479767 c 0,0 -17.913499,4.797664 -23.490343,15.592406 0.08449,0 -2.957417,-2.95856 -2.957417,-2.95856 z"
       id="path19646" />
    <path
       style="fill:#252525;fill-opacity:1;stroke:none;stroke-width:0.169706;stroke-linecap:square;stroke-linejoin:round;stroke-dasharray:none;stroke-opacity:1;paint-order:fill markers stroke"
       d="m 60.173023,82.332282 h 6.701225 l -7.098756,-5.970916 z"
       id="path19647" />
    <path
       id="path83"
       d="m 189.35345,47.800562 c 3.50731,0 6.35,2.84304 6.35,6.35 0,3.50696 -2.84269,6.35 -6.35,6.35 -3.50697,0 -6.35,-2.84304 -6.35,-6.35 0,-3.50696 2.84303,-6.35 6.35,-6.35"
       style="fill:#ff1010;fill-opacity:1;fill-rule:nonzero;stroke:none;stroke-width:0.352778" />
    <path
       id="path85"
       d="m 203.73693,35.411831 c 3.50732,0 6.35,2.84304 6.35,6.35 0,3.50696 -2.84268,6.35 -6.35,6.35 -3.50696,0 -6.35,-2.84304 -6.35,-6.35 0,-3.50696 2.84304,-6.35 6.35,-6.35"
       style="fill:#ffe8e8;fill-opacity:1;fill-rule:nonzero;stroke:none;stroke-width:0.352778" />
    <path
       id="path93"
       d="m 170.30345,38.280236 c 3.50696,0 6.35,2.843036 6.35,6.35 0,3.506964 -2.84304,6.35 -6.35,6.35 -3.50696,0 -6.35,-2.843036 -6.35,-6.35 0,-3.506964 2.84304,-6.35 6.35,-6.35"
       style="fill:#f1f5fd;fill-opacity:1;fill-rule:nonzero;stroke:none;stroke-width:0.352778" />
    <path
       id="path95"
       d="m 176.65345,19.10067 c 3.50696,0 6.35,2.843036 6.35,6.35 0,3.506964 -2.84304,6.35 -6.35,6.35 -3.50732,0 -6.35,-2.843036 -6.35,-6.35 0,-3.506964 2.84268,-6.35 6.35,-6.35"
       style="fill:#6495ed;fill-opacity:1;fill-rule:nonzero;stroke:none;stroke-width:0.352778" />
  </g>
</svg>
